<?xml version="1.0" encoding="UTF-8"?>
<svg version="1.1" xmlns="http://www.w3.org/2000/svg" width="1000" height="1000">
<path d="M0 0 C45.55854127 0 45.55854127 0 58.125 12.03515625 C60.16846375 14.29813271 62.09868593 16.61655312 64 19 C64.59941406 19.73863281 65.19882812 20.47726562 65.81640625 21.23828125 C67.1114897 22.8469966 68.39875367 24.4620267 69.6796875 26.08203125 C72.52713422 29.66291121 75.42031853 33.20523454 78.3125 36.75 C82.4727398 41.85359532 86.57972953 46.99238275 90.625 52.1875 C94.5886014 57.27363229 98.68990285 62.21634116 102.88208008 67.11499023 C106.60046176 71.47953203 110.14505256 75.96238696 113.6640625 80.48828125 C117.36158503 85.22735942 121.16496225 89.8717571 125 94.5 C129.76475668 100.25025664 134.43215511 106.06070541 139.01416016 111.95727539 C142.64335198 116.60368975 146.43846617 121.09303392 150.2734375 125.57006836 C153.40997335 129.24986418 156.29767458 132.99310369 159 137 C163.04561507 135.65146164 164.64955896 132.91042937 167.125 129.625 C168.11889438 128.33264277 169.11369601 127.0409828 170.109375 125.75 C170.60115234 125.10933594 171.09292969 124.46867187 171.59960938 123.80859375 C173.48163611 121.37797065 175.42135967 118.99831121 177.375 116.625 C181.11899241 112.0744024 184.84633724 107.51083076 188.5625 102.9375 C189.12694824 102.24285645 189.69139648 101.54821289 190.27294922 100.83251953 C193.81702812 96.466986 197.33831994 92.08414109 200.84375 87.6875 C204.28211275 83.4020044 207.75501727 79.1446273 211.22265625 74.8828125 C214.16322262 71.26680281 217.09444076 67.64426075 220 64 C224.56743677 58.27380549 229.19019064 52.59279266 233.81640625 46.9140625 C235.74967381 44.54076231 237.67568683 42.16217255 239.58984375 39.7734375 C241.69829218 37.15679893 243.83174588 34.56721288 246 32 C246.78117187 31.071875 246.78117187 31.071875 247.578125 30.125 C263.9042964 12.3146312 291.56566432 2.83411641 315 0 C316.32 0 317.64 0 319 0 C319 48.51 319 97.02 319 147 C368.17 147 417.34 147 468 147 C467.72300292 105.56413394 467.72300292 105.56413394 467.36938477 64.12890625 C467.33776855 56.10351562 467.33776855 56.10351562 467.33189392 52.34301758 C467.32116151 49.72325208 467.29922921 47.10587149 467.26097107 44.48657227 C467.20370656 40.51300372 467.20266073 36.54040481 467.20532227 32.56640625 C467.18013551 31.40540909 467.15494875 30.24441193 467.12899876 29.04823303 C467.19069355 22.15491163 468.24591814 18.44744154 473.19341946 13.54167175 C482.35798977 5.72095253 493.51963835 -0.12245437 505.70263672 -0.03710938 C506.69431854 -0.03175171 507.68600037 -0.02639404 508.70773315 -0.02087402 C509.46418121 -0.0139856 510.22062927 -0.00709717 511 0 C511.13732542 40.8846713 511.24305403 81.76931255 511.30639198 122.6541684 C511.31389624 127.480709 511.32166217 132.30724914 511.32958984 137.13378906 C511.33116371 138.09466854 511.33273757 139.05554801 511.33435912 140.04554504 C511.36046885 155.60514032 511.40777734 171.16460262 511.46291678 186.72411901 C511.51902087 202.68896454 511.55235163 218.65374041 511.56453097 234.61868048 C511.57276477 244.47041757 511.59877251 254.32177882 511.6474988 264.17340022 C511.67920837 270.92852918 511.688802 277.68346377 511.68100826 284.43866175 C511.67716416 288.33652355 511.68306675 292.23372848 511.71523285 296.13147354 C511.74448579 299.70232338 511.74587251 303.27207631 511.72539337 306.84297723 C511.72166773 308.74192054 511.74749932 310.6408514 511.77448785 312.53960657 C511.70451117 319.20311419 511.01437654 323.3553265 506.60566103 328.47669172 C495.83105334 338.69868051 482.3344492 341 468 341 C468 292.16 468 243.32 468 193 C418.83 193 369.66 193 319 193 C319.23742274 234.10668172 319.23742274 234.10668172 319.54052734 275.21289062 C319.56762695 283.17480469 319.56762695 283.17480469 319.57266235 286.90563965 C319.58186031 289.50432554 319.60066055 292.1012445 319.63345337 294.69958496 C319.68254101 298.64165337 319.68343346 302.58300372 319.68115234 306.52539062 C319.70274099 307.67701942 319.72432964 308.82864822 319.74657249 310.01517487 C319.68894361 317.46882642 318.23102796 321.6505769 313 327 C312.34257813 327.69351562 311.68515625 328.38703125 311.0078125 329.1015625 C297.191409 340.28081014 281.31883835 341 264 341 C263.67 256.52 263.34 172.04 263 85 C259.37 89.62 255.74 94.24 252 99 C249.84141617 101.67435165 247.67942231 104.34301503 245.5 107 C241.44902353 111.96136239 237.44192825 116.95156557 233.5 122 C229.0179989 127.74010668 224.44043443 133.39693246 219.8359375 139.0390625 C216.34469917 143.32451618 212.90181112 147.64329453 209.5 152 C205.02088732 157.73640746 200.44655322 163.38982041 195.84472656 169.02807617 C192.26614387 173.42040855 188.73938026 177.84905246 185.25 182.3125 C183.50130016 184.54268945 181.7508916 186.7715311 180 189 C179.195625 190.02480469 178.39125 191.04960938 177.5625 192.10546875 C167.21463511 205.05777936 167.21463511 205.05777936 160.375 207.0625 C155.849068 206.97868644 153.38909672 205.32755446 150.1484375 202.23046875 C145.76656918 197.18263366 141.5907149 191.99443682 137.48974609 186.7175293 C133.74340701 181.90745427 129.89069391 177.19380424 126 172.5 C121.30682837 166.83420944 116.70210586 161.11427845 112.18359375 155.30859375 C108.535149 150.63900995 104.77986172 146.06359115 101 141.5 C96.30706183 135.83401201 91.70211112 130.11428521 87.18359375 124.30859375 C83.53514607 119.63900619 79.77975048 115.06368738 76 110.5 C69.87144484 103.0973395 63.89550039 95.58891451 58 88 C56.77930249 86.43027089 55.55851371 84.86061275 54.33764648 83.29101562 C53.71139877 82.48587524 53.08515106 81.68073486 52.43992615 80.85119629 C51.96475052 80.24030151 51.48957489 79.62940674 51 79 C51.00037703 80.22436768 51.00075405 81.44873535 51.0011425 82.71020508 C51.00875882 111.78455854 50.98547144 140.85875589 50.92420971 169.93303996 C50.91669381 173.51281396 50.90943829 177.09258843 50.90234375 180.67236328 C50.90021862 181.74135095 50.90021862 181.74135095 50.89805056 182.83193433 C50.87574164 194.36607092 50.87451929 205.90011801 50.88111137 217.43427014 C50.88740699 229.27240025 50.87099188 241.11034236 50.83356392 252.94841576 C50.81319474 259.59647389 50.80400881 266.24424835 50.81957626 272.89233398 C50.83389903 279.15021195 50.82020142 285.40740396 50.78504753 291.66519356 C50.77708133 293.96132751 50.77933702 296.25752331 50.79260826 298.55363274 C50.80921008 301.6914342 50.78889474 304.82694008 50.75949097 307.96459961 C50.77307707 308.87123352 50.78666317 309.77786743 50.80066097 310.7119751 C50.67862367 317.4226594 48.49770631 321.10709598 44 326 C43.35675781 326.70511719 42.71351563 327.41023438 42.05078125 328.13671875 C29.9687463 338.91552297 15.72573929 341 0 341 C0 228.47 0 115.94 0 0 Z " fill="#FFFFFF" transform="translate(247,329)"/>
</svg>
